<svg version="1.1" id="Layer_1" xmlns="http://www.w3.org/2000/svg" xmlns:xlink="http://www.w3.org/1999/xlink" x="0px" y="0px"
	 width="100%" viewBox="0 0 400 210" enable-background="new 0 0 400 210" xml:space="preserve">
<path fill="#F9F9F9" opacity="1.000000" stroke="none" 
	d="
M294.000000,211.000000 
	C196.000031,211.000000 98.500061,211.000000 1.000065,211.000000 
	C1.000044,141.000046 1.000044,71.000099 1.000022,1.000112 
	C134.333237,1.000075 267.666473,1.000075 400.999817,1.000037 
	C400.999878,70.999886 400.999878,140.999771 400.999939,210.999832 
	C365.500000,211.000000 330.000000,211.000000 294.000000,211.000000 
M164.782013,19.414892 
	C157.303345,18.672651 152.265533,21.535248 150.034409,29.009300 
	C149.134171,32.025009 147.407990,34.795319 146.520584,37.813408 
	C145.298599,41.969372 142.991669,43.430946 138.550049,43.367371 
	C124.056091,43.159920 109.548080,43.182323 95.059021,43.593563 
	C80.308167,44.012234 70.929665,53.548615 71.489243,68.222351 
	C72.125092,84.896065 69.901566,101.093269 65.739304,117.125763 
	C65.332008,118.694595 64.535812,120.162468 63.509903,122.686478 
	C61.111229,109.625000 59.030838,97.818703 56.682549,86.065918 
	C56.359898,84.451088 54.885002,82.043877 53.634666,81.832733 
	C50.172142,81.248009 46.546333,81.630165 43.219620,81.630165 
	C42.940796,82.856010 42.750694,83.199806 42.812595,83.489807 
	C47.226410,104.167320 51.606136,124.852699 56.231228,145.483047 
	C56.499889,146.681412 58.651451,147.852280 60.142986,148.277557 
	C61.838818,148.761108 63.813034,148.162766 65.604256,148.438034 
	C70.077415,149.125504 71.595833,147.050018 72.439278,142.858643 
	C74.684494,131.701447 77.437706,120.646477 79.988930,109.550858 
	C83.526787,119.198311 86.175850,128.803192 88.686157,138.444199 
	C91.350861,148.678146 91.292130,148.579025 102.088997,148.462814 
	C105.192581,148.429413 106.425262,147.422333 107.016327,144.353806 
	C109.031303,133.893005 111.369713,123.494637 113.570000,113.069344 
	C115.725098,102.858170 117.862267,92.643196 120.180275,81.606323 
	C117.007050,81.606323 114.554977,81.798065 112.144768,81.562126 
	C108.372154,81.192810 106.439125,82.294106 105.788109,86.444183 
	C104.499168,94.660904 102.595833,102.781380 100.941307,110.940582 
	C100.119759,114.992004 99.286751,119.041100 98.458931,123.091248 
	C94.451286,111.403046 91.825302,99.735474 88.757149,88.185356 
	C87.976440,85.246361 85.791519,82.680382 84.251793,79.943016 
	C83.832901,80.122437 83.414001,80.301865 82.995110,80.481285 
	C82.995110,76.985420 82.994400,73.489555 82.995247,69.993690 
	C82.997787,59.518307 87.342453,55.115662 97.814316,55.097904 
	C113.147537,55.071907 128.481201,55.042431 143.813950,55.134922 
	C149.205231,55.167446 153.098083,53.409592 155.060944,47.990112 
	C156.702332,43.458179 158.589493,38.982285 160.811234,34.712292 
	C161.540176,33.311363 163.647720,31.776686 165.144012,31.756947 
	C181.141174,31.545874 197.143539,31.533895 213.140152,31.765871 
	C214.812714,31.790129 217.136719,33.347721 217.987488,34.854897 
	C220.516312,39.334839 222.560715,44.101616 224.602295,48.839096 
	C226.322357,52.830486 229.316925,54.850883 233.512756,54.925510 
	C254.470810,55.298267 275.430847,55.558186 296.389099,55.921665 
	C300.281494,55.989174 300.547119,53.860367 299.467072,51.078880 
	C297.574463,46.204720 293.756287,43.751381 288.636963,43.662678 
	C276.142456,43.446178 263.540894,42.357208 251.177368,43.584007 
	C238.350830,44.856754 230.785797,41.015411 227.839630,28.194538 
	C226.326263,21.608793 221.541672,19.173843 214.719681,19.299952 
	C198.391953,19.601774 182.055099,19.410643 164.782013,19.414892 
M244.400558,92.664474 
	C244.400558,89.100792 244.400558,85.537102 244.400558,82.070206 
	C239.204941,82.070206 235.158585,82.070206 230.646942,82.070206 
	C230.646942,87.036110 230.646942,91.561096 230.646942,96.086090 
	C229.469772,95.371613 229.041122,94.550484 228.661102,93.707420 
	C216.013077,65.647728 180.230453,55.667885 155.976273,74.566208 
	C148.680038,80.251266 141.908066,82.269363 133.458298,81.659279 
	C133.127686,81.635406 132.784439,81.724190 132.460953,81.672920 
	C128.540009,81.051468 127.242996,82.613930 127.278763,86.634506 
	C127.426880,103.286514 127.254051,119.941307 127.210815,136.595108 
	C127.180191,148.388535 127.195976,148.638763 139.156113,148.284912 
	C145.551178,148.095718 150.659485,149.610199 156.105499,153.410446 
	C182.180878,171.605957 217.413925,160.795792 229.149017,131.519669 
	C229.445465,130.780106 230.052246,130.164932 231.347443,128.277878 
	C231.347443,135.814178 231.347443,141.884949 231.347443,148.161057 
	C235.772018,148.161057 239.717728,148.161057 244.403183,148.161057 
	C244.403183,129.847900 244.403183,111.736465 244.400558,92.664474 
M268.658630,88.743698 
	C268.646576,81.609779 268.646576,81.609840 261.729675,81.610664 
	C261.230072,81.610725 260.722076,81.668457 260.232239,81.598915 
	C256.337921,81.045998 255.059219,82.593124 255.102386,86.600777 
	C255.299728,104.917007 255.190704,123.236549 255.190872,141.554901 
	C255.190933,148.380020 255.189850,148.380020 261.786346,148.384933 
	C268.660858,148.390045 268.660858,148.390045 268.662628,141.341446 
	C268.663330,138.510422 268.329956,135.628189 268.754181,132.862137 
	C269.220581,129.820953 270.384186,126.886688 271.244019,123.905830 
	C276.343475,131.061234 279.923798,138.002075 283.671692,144.851242 
	C284.406494,146.194107 285.704956,148.061462 286.889069,148.175552 
	C291.099762,148.581207 295.373383,148.333954 300.736511,148.333954 
	C295.302246,138.908783 290.976746,130.260788 285.561371,122.359802 
	C280.826843,115.452156 279.827759,109.722450 285.966736,103.169609 
	C289.219025,99.698044 291.385010,95.205139 294.017334,91.157669 
	C295.794312,88.425423 297.529297,85.665863 299.362915,82.793472 
	C290.447083,79.710251 285.478790,81.208763 281.228455,87.875244 
	C278.812744,91.664177 276.445831,95.484184 274.033081,99.274979 
	C272.594757,101.534782 271.110107,103.765106 269.646301,106.008682 
	C269.317108,105.859444 268.987885,105.710205 268.658691,105.560966 
	C268.658691,100.269279 268.658691,94.977600 268.658630,88.743698 
M306.785065,133.202271 
	C305.477936,137.980026 304.170807,142.757797 302.721863,148.053986 
	C307.073212,148.053986 312.060760,149.533463 314.316742,147.682922 
	C317.196198,145.320953 317.869659,140.269653 319.640015,136.027390 
	C324.388397,136.027390 329.377289,136.174591 334.351746,135.970230 
	C337.176361,135.854202 338.686798,136.710861 339.175323,139.601242 
	C339.533356,141.719696 340.156830,143.843842 341.025452,145.804413 
	C341.469727,146.807281 342.661133,148.076874 343.603058,148.154434 
	C347.027100,148.436295 350.488373,148.265656 354.574677,148.265656 
	C354.032257,145.969711 353.712341,144.384521 353.282104,142.829849 
	C348.533691,125.672485 343.929718,108.472786 338.949982,91.382652 
	C335.669434,80.123978 338.584625,82.016350 326.140808,81.614120 
	C322.400482,81.493225 320.886475,82.826630 319.944000,86.287247 
	C315.747192,101.697601 311.320374,117.045311 306.785065,133.202271 
M92.044624,171.990570 
	C79.497269,171.010101 83.491470,160.483017 81.717575,153.538452 
	C71.095184,152.005035 71.095184,152.005035 71.309814,162.059601 
	C71.605278,175.901108 79.298584,183.571640 93.168945,183.632767 
	C110.298981,183.708252 127.429756,183.609650 144.559830,183.679504 
	C148.731842,183.696533 151.875366,182.761490 151.998138,177.818466 
	C152.107758,173.405685 150.419571,172.003586 144.834473,171.998169 
	C127.537804,171.981400 110.241119,171.992538 92.044624,171.990570 
z"/>
<path fill="#505867" opacity="1.000000" stroke="none" 
	d="
M165.251984,19.416702 
	C182.055099,19.410643 198.391953,19.601774 214.719681,19.299952 
	C221.541672,19.173843 226.326263,21.608793 227.839630,28.194538 
	C230.785797,41.015411 238.350830,44.856754 251.177368,43.584007 
	C263.540894,42.357208 276.142456,43.446178 288.636963,43.662678 
	C293.756287,43.751381 297.574463,46.204720 299.467072,51.078880 
	C300.547119,53.860367 300.281494,55.989174 296.389099,55.921665 
	C275.430847,55.558186 254.470810,55.298267 233.512756,54.925510 
	C229.316925,54.850883 226.322357,52.830486 224.602295,48.839096 
	C222.560715,44.101616 220.516312,39.334839 217.987488,34.854897 
	C217.136719,33.347721 214.812714,31.790129 213.140152,31.765871 
	C197.143539,31.533895 181.141174,31.545874 165.144012,31.756947 
	C163.647720,31.776686 161.540176,33.311363 160.811234,34.712292 
	C158.589493,38.982285 156.702332,43.458179 155.060944,47.990112 
	C153.098083,53.409592 149.205231,55.167446 143.813950,55.134922 
	C128.481201,55.042431 113.147537,55.071907 97.814316,55.097904 
	C87.342453,55.115662 82.997787,59.518307 82.995247,69.993690 
	C82.994400,73.489555 82.995110,76.985420 82.995110,80.481285 
	C83.414001,80.301865 83.832901,80.122437 84.251793,79.943016 
	C85.791519,82.680382 87.976440,85.246361 88.757149,88.185356 
	C91.825302,99.735474 94.451286,111.403046 98.458931,123.091248 
	C99.286751,119.041100 100.119759,114.992004 100.941307,110.940582 
	C102.595833,102.781380 104.499168,94.660904 105.788109,86.444183 
	C106.439125,82.294106 108.372154,81.192810 112.144768,81.562126 
	C114.554977,81.798065 117.007050,81.606323 120.180275,81.606323 
	C117.862267,92.643196 115.725098,102.858170 113.570000,113.069344 
	C111.369713,123.494637 109.031303,133.893005 107.016327,144.353806 
	C106.425262,147.422333 105.192581,148.429413 102.088997,148.462814 
	C91.292130,148.579025 91.350861,148.678146 88.686157,138.444199 
	C86.175850,128.803192 83.526787,119.198311 79.988930,109.550858 
	C77.437706,120.646477 74.684494,131.701447 72.439278,142.858643 
	C71.595833,147.050018 70.077415,149.125504 65.604256,148.438034 
	C63.813034,148.162766 61.838818,148.761108 60.142986,148.277557 
	C58.651451,147.852280 56.499889,146.681412 56.231228,145.483047 
	C51.606136,124.852699 47.226410,104.167320 42.812595,83.489807 
	C42.750694,83.199806 42.940796,82.856010 43.219620,81.630165 
	C46.546333,81.630165 50.172142,81.248009 53.634666,81.832733 
	C54.885002,82.043877 56.359898,84.451088 56.682549,86.065918 
	C59.030838,97.818703 61.111229,109.625000 63.509903,122.686478 
	C64.535812,120.162468 65.332008,118.694595 65.739304,117.125763 
	C69.901566,101.093269 72.125092,84.896065 71.489243,68.222351 
	C70.929665,53.548615 80.308167,44.012234 95.059021,43.593563 
	C109.548080,43.182323 124.056091,43.159920 138.550049,43.367371 
	C142.991669,43.430946 145.298599,41.969372 146.520584,37.813408 
	C147.407990,34.795319 149.134171,32.025009 150.034409,29.009300 
	C152.265533,21.535248 157.303345,18.672651 165.251984,19.416702 
z"/>
<path fill="#4F5765" opacity="1.000000" stroke="none" 
	d="
M244.401871,93.144745 
	C244.403183,111.736465 244.403183,129.847900 244.403183,148.161057 
	C239.717728,148.161057 235.772018,148.161057 231.347443,148.161057 
	C231.347443,141.884949 231.347443,135.814178 231.347443,128.277878 
	C230.052246,130.164932 229.445465,130.780106 229.149017,131.519669 
	C217.413925,160.795792 182.180878,171.605957 156.105499,153.410446 
	C150.659485,149.610199 145.551178,148.095718 139.156113,148.284912 
	C127.195976,148.638763 127.180191,148.388535 127.210815,136.595108 
	C127.254051,119.941307 127.426880,103.286514 127.278763,86.634506 
	C127.242996,82.613930 128.540009,81.051468 132.460953,81.672920 
	C132.784439,81.724190 133.127686,81.635406 133.458298,81.659279 
	C141.908066,82.269363 148.680038,80.251266 155.976273,74.566208 
	C180.230453,55.667885 216.013077,65.647728 228.661102,93.707420 
	C229.041122,94.550484 229.469772,95.371613 230.646942,96.086090 
	C230.646942,91.561096 230.646942,87.036110 230.646942,82.070206 
	C235.158585,82.070206 239.204941,82.070206 244.400558,82.070206 
	C244.400558,85.537102 244.400558,89.100792 244.401871,93.144745 
M209.578278,140.080612 
	C224.834839,125.150978 223.525650,102.997307 211.780991,89.940758 
	C197.619873,74.197807 176.252563,72.500481 161.007080,86.323906 
	C154.952179,91.814034 149.337448,95.587029 141.101318,94.452087 
	C140.863815,94.419365 140.568817,94.803932 140.454315,94.885056 
	C140.454315,99.223656 140.454315,103.439400 140.454315,107.006172 
	C143.347046,109.478783 148.623215,104.842583 149.059753,111.075546 
	C149.267227,114.037926 149.973282,117.827682 148.507431,119.785934 
	C147.217392,121.509323 143.217010,121.203903 140.397476,121.797844 
	C140.397476,126.234863 140.397476,130.618942 140.397476,135.345367 
	C143.435699,135.345367 146.107758,135.569916 148.727127,135.294052 
	C152.917587,134.852722 155.872299,136.463272 158.800583,139.430374 
	C172.935196,153.752304 194.134415,154.139069 209.578278,140.080612 
z"/>
<path fill="#505866" opacity="1.000000" stroke="none" 
	d="
M268.658661,89.214813 
	C268.658691,94.977600 268.658691,100.269279 268.658691,105.560966 
	C268.987885,105.710205 269.317108,105.859444 269.646301,106.008682 
	C271.110107,103.765106 272.594757,101.534782 274.033081,99.274979 
	C276.445831,95.484184 278.812744,91.664177 281.228455,87.875244 
	C285.478790,81.208763 290.447083,79.710251 299.362915,82.793472 
	C297.529297,85.665863 295.794312,88.425423 294.017334,91.157669 
	C291.385010,95.205139 289.219025,99.698044 285.966736,103.169609 
	C279.827759,109.722450 280.826843,115.452156 285.561371,122.359802 
	C290.976746,130.260788 295.302246,138.908783 300.736511,148.333954 
	C295.373383,148.333954 291.099762,148.581207 286.889069,148.175552 
	C285.704956,148.061462 284.406494,146.194107 283.671692,144.851242 
	C279.923798,138.002075 276.343475,131.061234 271.244019,123.905830 
	C270.384186,126.886688 269.220581,129.820953 268.754181,132.862137 
	C268.329956,135.628189 268.663330,138.510422 268.662628,141.341446 
	C268.660858,148.390045 268.660858,148.390045 261.786346,148.384933 
	C255.189850,148.380020 255.190933,148.380020 255.190872,141.554901 
	C255.190704,123.236549 255.299728,104.917007 255.102386,86.600777 
	C255.059219,82.593124 256.337921,81.045998 260.232239,81.598915 
	C260.722076,81.668457 261.230072,81.610725 261.729675,81.610664 
	C268.646576,81.609840 268.646576,81.609779 268.658661,89.214813 
z"/>
<path fill="#4E5665" opacity="1.000000" stroke="none" 
	d="
M306.880890,132.808960 
	C311.320374,117.045311 315.747192,101.697601 319.944000,86.287247 
	C320.886475,82.826630 322.400482,81.493225 326.140808,81.614120 
	C338.584625,82.016350 335.669434,80.123978 338.949982,91.382652 
	C343.929718,108.472786 348.533691,125.672485 353.282104,142.829849 
	C353.712341,144.384521 354.032257,145.969711 354.574677,148.265656 
	C350.488373,148.265656 347.027100,148.436295 343.603058,148.154434 
	C342.661133,148.076874 341.469727,146.807281 341.025452,145.804413 
	C340.156830,143.843842 339.533356,141.719696 339.175323,139.601242 
	C338.686798,136.710861 337.176361,135.854202 334.351746,135.970230 
	C329.377289,136.174591 324.388397,136.027390 319.640015,136.027390 
	C317.869659,140.269653 317.196198,145.320953 314.316742,147.682922 
	C312.060760,149.533463 307.073212,148.053986 302.721863,148.053986 
	C304.170807,142.757797 305.477936,137.980026 306.880890,132.808960 
M328.551086,101.841995 
	C326.598785,109.071907 324.646454,116.301811 322.633026,123.758057 
	C326.963165,123.758057 330.478424,123.758057 334.644043,123.758057 
	C332.705200,116.249916 330.897461,109.249512 328.551086,101.841995 
z"/>
<path fill="#535A69" opacity="1.000000" stroke="none" 
	d="
M92.494537,171.991699 
	C110.241119,171.992538 127.537804,171.981400 144.834473,171.998169 
	C150.419571,172.003586 152.107758,173.405685 151.998138,177.818466 
	C151.875366,182.761490 148.731842,183.696533 144.559830,183.679504 
	C127.429756,183.609650 110.298981,183.708252 93.168945,183.632767 
	C79.298584,183.571640 71.605278,175.901108 71.309814,162.059601 
	C71.095184,152.005035 71.095184,152.005035 81.717575,153.538452 
	C83.491470,160.483017 79.497269,171.010101 92.494537,171.991699 
z"/>
<path fill="#F4F5F5" opacity="1.000000" stroke="none" 
	d="
M209.325333,140.334335 
	C194.134415,154.139069 172.935196,153.752304 158.800583,139.430374 
	C155.872299,136.463272 152.917587,134.852722 148.727127,135.294052 
	C146.107758,135.569916 143.435699,135.345367 140.397476,135.345367 
	C140.397476,130.618942 140.397476,126.234863 140.397476,121.797844 
	C143.217010,121.203903 147.217392,121.509323 148.507431,119.785934 
	C149.973282,117.827682 149.267227,114.037926 149.059753,111.075546 
	C148.623215,104.842583 143.347046,109.478783 140.454315,107.006172 
	C140.454315,103.439400 140.454315,99.223656 140.454315,94.885056 
	C140.568817,94.803932 140.863815,94.419365 141.101318,94.452087 
	C149.337448,95.587029 154.952179,91.814034 161.007080,86.323906 
	C176.252563,72.500481 197.619873,74.197807 211.780991,89.940758 
	C223.525650,102.997307 224.834839,125.150978 209.325333,140.334335 
M199.572571,135.209396 
	C212.331345,125.300507 214.728912,109.761452 205.338852,97.837105 
	C196.297501,86.355568 178.510498,84.371643 167.371536,93.602341 
	C157.080612,102.130280 155.303833,117.945717 163.356506,129.341064 
	C171.231476,140.484909 186.365768,143.160706 199.572571,135.209396 
z"/>
<path fill="#F0F0F2" opacity="1.000000" stroke="none" 
	d="
M328.820404,102.045547 
	C330.897461,109.249512 332.705200,116.249916 334.644043,123.758057 
	C330.478424,123.758057 326.963165,123.758057 322.633026,123.758057 
	C324.646454,116.301811 326.598785,109.071907 328.820404,102.045547 
z"/>
<path fill="#4E5665" opacity="1.000000" stroke="none" 
	d="
M199.277374,135.424591 
	C186.365768,143.160706 171.231476,140.484909 163.356506,129.341064 
	C155.303833,117.945717 157.080612,102.130280 167.371536,93.602341 
	C178.510498,84.371643 196.297501,86.355568 205.338852,97.837105 
	C214.728912,109.761452 212.331345,125.300507 199.277374,135.424591 
M169.597565,101.160995 
	C166.647583,104.964104 165.079514,109.115692 165.549011,115.103928 
	C168.485977,110.328926 170.220322,106.285347 173.044846,103.259369 
	C175.898407,100.202286 179.832397,98.153702 184.423187,94.850052 
	C177.662598,94.637138 173.545227,96.853531 169.597565,101.160995 
z"/>
<path fill="#DFE0E3" opacity="1.000000" stroke="none" 
	d="
M169.830780,100.881195 
	C173.545227,96.853531 177.662598,94.637138 184.423187,94.850052 
	C179.832397,98.153702 175.898407,100.202286 173.044846,103.259369 
	C170.220322,106.285347 168.485977,110.328926 165.549011,115.103928 
	C165.079514,109.115692 166.647583,104.964104 169.830780,100.881195 
z"/>
</svg>